<?xml version="1.0" encoding="UTF-8"?>
<svg width="142px" height="165px" viewBox="0 0 142 165" version="1.1" xmlns="http://www.w3.org/2000/svg" xmlns:xlink="http://www.w3.org/1999/xlink">
    <title>Hills_TransformingLives_Logo_CMYK_2019</title>
    <defs>
        <polygon id="path-1" points="0.039 0.22165 141.61095 0.22165 141.61095 141.83 0.039 141.83"></polygon>
        <polygon id="path-3" points="0.039 0.40755 67.8106 0.40755 67.8106 145.14175 0.039 145.14175"></polygon>
        <polygon id="path-5" points="0.22295 0.52585 17.4941 0.52585 17.4941 11.011 0.22295 11.011"></polygon>
    </defs>
    <g id="1.-Login-" stroke="none" stroke-width="1" fill="none" fill-rule="evenodd">
        <g id="1.0.0.D_Login-Hill's-Vet" transform="translate(-649.000000, -107.000000)">
            <g id="Group-2" transform="translate(465.000000, 107.000000)">
                <g id="Hills_TransformingLives_Logo_CMYK_2019" transform="translate(184.000000, 0.000000)">
                    <g id="Group-3">
                        <mask id="mask-2" fill="white">
                            <use xlink:href="#path-1"></use>
                        </mask>
                        <g id="Clip-2"></g>
                        <polygon id="Fill-1" fill="#707171" mask="url(#mask-2)" points="0.039 141.83 141.61095 141.83 141.61095 0.22165 0.039 0.22165"></polygon>
                    </g>
                    <polygon id="Fill-4" fill="#FFFFFE" points="2.42515 139.40745 139.1858 139.40745 139.1858 2.6455 2.42515 2.6455"></polygon>
                    <path d="M100.97165,92.2662 C99.3993,92.22785 97.5455,92.74005 97.4584,94.3839 C97.39665,95.71315 98.44185,96.1103 98.68755,97.4545 C99.1224,99.8725 97.06385,101.55665 97.0281,101.582 L97.3765,102.08965 C99.0665,101.1933 102.00125,99.44935 103.55865,96.4405 C104.57785,94.4684 103.7322,92.3455 100.97165,92.2662 Z M62.2583,92.7524 C60.0613,92.7524 58.7886,94.146 58.7886,95.88735 C58.7886,97.6183 60.0613,99.01645 62.2583,99.01645 C64.44035,99.01645 65.71565,97.6183 65.71565,95.88735 C65.71565,94.146 64.44035,92.7524 62.2583,92.7524 Z M109.64265,110.37195 C107.3839,109.65175 104.2496,108.4148 104.2496,106.88405 C104.2496,104.65325 107.354,104.3666 109.99625,104.7553 C112.788,105.16285 115.47705,107.24025 116.844,108.797 L117.24375,108.6462 L117.29055,103.37795 C117.29055,103.37795 113.49455,102.2463 109.2234,102.1696 C100.44905,102.01555 98.3853,105.9851 98.293,108.3667 C98.098,113.61155 103.4969,115.4803 108.1834,117.1118 C111.0772,118.11865 113.7461,118.86095 113.7461,120.38975 C113.7461,122.2676 111.9274,123.48635 107.89155,123.48635 C102.2983,123.48635 99.0925,119.54475 98.1747,118.4105 L97.7704,118.6029 L98.9131,125.08665 L99.21535,125.27385 C101.4273,124.50295 103.54305,125.8803 108.12165,125.93685 C117.09035,126.0493 119.18985,121.32705 119.47195,119.13005 C120.07125,114.3662 115.23135,112.14905 109.64265,110.37195 Z M93.8015,122.55685 C93.6221,121.7853 93.50965,120.69265 93.50965,119.62145 L93.4934,92.3403 L84.10025,93.951 L84.03915,94.3917 C85.45225,95.04755 85.9339,95.5851 86.2108,96.8045 C86.4253,97.67225 86.5644,98.8403 86.5644,99.77955 L86.5644,119.62145 C86.5644,121.4707 86.27775,122.9488 85.7493,123.79055 C85.37555,124.3008 84.9914,124.5699 84.0541,124.9664 L84.1516,125.41685 L95.7164,125.41685 L95.8295,124.9794 C94.5334,124.26505 94.0875,123.75025 93.8015,122.55685 Z M80.08455,122.55685 C79.911,121.7853 79.7927,120.69265 79.7927,119.62145 L79.7875,92.3403 L70.38915,93.951 L70.32805,94.3917 C71.7288,95.04755 72.2293,95.5851 72.4958,96.8045 C72.71095,97.67225 72.85135,98.8403 72.85135,99.77955 L72.85395,119.62145 C72.85395,121.4707 72.5621,122.9488 72.03625,123.79055 C71.66185,124.3008 71.2803,124.5699 70.3534,124.9664 L70.4405,125.41685 L82.0105,125.41685 L82.1236,124.9794 C80.8171,124.26505 80.3816,123.75025 80.08455,122.55685 Z M66.5249,122.1493 C66.31495,121.10735 66.1947,119.7937 66.20965,118.7329 L66.31495,102.4972 L57.2364,103.99025 L57.13695,104.42055 C58.39405,105.32145 58.7886,105.9084 59.07265,107.2474 C59.254,108.2055 59.3515,109.1987 59.34175,110.46425 L59.2696,118.7329 C59.24685,120.8818 58.9472,122.60235 58.40705,123.59425 C58.0892,124.2033 57.7486,124.46915 56.7034,124.95405 L56.8035,125.4045 L68.4203,125.4045 L68.5529,124.9664 C67.25225,124.1695 66.807,123.5403 66.5249,122.1493 Z M55.13885,124.98655 L55.0056,125.41685 L42.4112,125.41685 L42.29615,124.9716 C43.23345,124.4724 43.56625,124.23125 43.99915,123.75545 C44.7876,122.9254 45.17695,121.61955 45.17695,119.7573 C45.17695,119.7573 45.17695,107.939 45.17695,107.4853 C44.7343,107.4853 33.50685,107.4853 33.0668,107.4853 C33.0668,107.939 33.0668,119.7573 33.0668,119.7573 C33.0668,120.56915 33.2202,121.74175 33.40935,122.3872 C33.68885,123.43955 34.33885,124.10905 35.89885,124.9794 L35.7838,125.41685 L23.03275,125.41685 L22.9281,124.9716 C23.88295,124.488 24.22875,124.24945 24.66685,123.75025 C25.4631,122.9306 25.84985,121.61955 25.84465,119.7573 L25.83425,98.54065 C25.83425,97.7106 25.68865,96.512 25.49885,95.88475 C25.16605,94.8012 24.46665,94.09985 22.9177,93.2854 L23.02235,92.8395 L35.7838,92.8395 L35.90145,93.275 C34.96155,93.85675 34.5878,94.1252 34.20365,94.61725 C33.4633,95.43365 33.0616,96.85 33.0616,98.58875 C33.0616,98.58875 33.0616,104.05135 33.0616,104.48165 C33.50685,104.48165 44.7343,104.48165 45.17695,104.48165 C45.17695,103.37535 45.17695,98.57835 45.17695,98.57835 C45.17695,97.70345 45.02355,96.512 44.83375,95.9283 C44.4522,94.7245 43.64555,93.94125 42.1551,93.2906 L42.2526,92.8395 L55.2006,92.8395 L55.31045,93.2854 C54.37835,93.77485 53.9942,94.01275 53.56455,94.49375 C52.78065,95.35435 52.43225,96.6147 52.43225,98.58875 L52.43485,119.75275 C52.43485,120.57435 52.5603,121.68065 52.78065,122.3872 C53.3156,124.1032 55.13885,124.98655 55.13885,124.98655 L55.13885,124.98655 Z" id="Fill-5" fill="#1A1919"></path>
                    <path d="M22.64535,89.1111 L22.8982,89.30025 C25.45335,86.93425 28.06245,84.61375 30.68975,82.2965 L67.8106,82.2965 L67.8106,54.20545 C69.82885,52.96655 71.8029,51.83425 73.8517,50.67205 L73.8517,82.2965 L111.0031,82.2965 L111.0031,35.20595 C118.5938,33.2215 126.46335,31.73235 134.48435,31.21755 L134.48435,30.89515 C70.73105,24.6168 23.61905,87.815 22.64535,89.1111" id="Fill-6" fill="#064B8D"></path>
                    <path d="M14.5431,94.1226 L14.77905,94.276 C24.0396,83.77395 58.539,30.72225 120.9676,27.1687 L120.9676,26.8372 C65.6799,20.75385 28.9601,72.27285 14.5431,94.1226" id="Fill-7" fill="#D82237"></path>
                    <path d="M110.94655,23.0269 L110.94655,16.65755 L73.8517,16.65755 L73.8517,31.56725 C84.8666,26.3315 97.2231,22.95865 110.94655,23.0269" id="Fill-8" fill="#D82237"></path>
                    <g id="Group-12" transform="translate(0.000000, 16.250000)">
                        <mask id="mask-4" fill="white">
                            <use xlink:href="#path-3"></use>
                        </mask>
                        <g id="Clip-10"></g>
                        <path d="M30.68975,50.9691 L30.68975,0.40755 L67.8106,0.40755 L67.8106,18.4392 C52.67665,26.99775 40.32925,39.1131 30.68975,50.9691" id="Fill-9" fill="#D82237" mask="url(#mask-4)"></path>
                        <polyline id="Fill-11" fill="#3E4041" mask="url(#mask-4)" points="3.16875 136.8471 0.0026 136.8471 0.0026 134.73655 8.6242 134.73655 8.6242 136.8471 5.45805 136.8471 5.45805 145.14175 3.16875 145.14175 3.16875 136.8471"></polyline>
                    </g>
                    <path d="M9.2469,153.42405 L11.5063,153.42405 L11.5063,155.02955 C11.96715,153.92975 12.71075,153.21605 14.04845,153.27585 L14.04845,155.63925 L13.9295,155.63925 C12.428,155.63925 11.5063,156.546 11.5063,158.44855 L11.5063,161.39175 L9.2469,161.39175 L9.2469,153.42405" id="Fill-13" fill="#3E4041"></path>
                    <path d="M19.8003,158.58245 L19.8003,158.1814 C19.41355,158.00265 18.9085,157.8837 18.35795,157.8837 C17.39205,157.8837 16.7973,158.2698 16.7973,158.9835 L16.7973,159.0134 C16.7973,159.62245 17.30235,159.9793 18.031,159.9793 C19.0866,159.9793 19.8003,159.40015 19.8003,158.58245 Z M14.612,159.1031 L14.612,159.0732 C14.612,157.3338 15.9354,156.53105 17.823,156.53105 C18.62575,156.53105 19.20555,156.66495 19.7704,156.858 L19.7704,156.7241 C19.7704,155.7881 19.1906,155.26745 18.0609,155.26745 C17.19835,155.26745 16.5893,155.4306 15.86065,155.6984 L15.2958,153.9746 C16.1733,153.58785 17.0352,153.33565 18.38785,153.33565 C19.62155,153.33565 20.51335,153.6626 21.07885,154.22745 C21.67295,154.82155 21.94075,155.6984 21.94075,156.76895 L21.94075,161.39175 L19.75545,161.39175 L19.75545,160.52985 C19.20555,161.1389 18.44765,161.5406 17.3472,161.5406 C15.8457,161.5406 14.612,160.67805 14.612,159.1031 L14.612,159.1031 Z" id="Fill-14" fill="#3E4041"></path>
                    <path d="M23.8862,153.42405 L26.1456,153.42405 L26.1456,154.5544 C26.66625,153.8849 27.3351,153.27585 28.47975,153.27585 C30.18925,153.27585 31.18505,154.40555 31.18505,156.234 L31.18505,161.39175 L28.92565,161.39175 L28.92565,156.94705 C28.92565,155.87715 28.4206,155.32725 27.55805,155.32725 C26.69615,155.32725 26.1456,155.87715 26.1456,156.94705 L26.1456,161.39175 L23.8862,161.39175 L23.8862,153.42405" id="Fill-15" fill="#3E4041"></path>
                    <path d="M32.5208,160.33615 L33.48735,158.85025 C34.34925,159.47425 35.256,159.8012 35.9996,159.8012 C36.6535,159.8012 36.95055,159.56395 36.95055,159.2071 L36.95055,159.1772 C36.95055,158.68645 36.1777,158.52265 35.3002,158.2555 C34.1861,157.92855 32.9225,157.4079 32.9225,155.8622 L32.9225,155.8323 C32.9225,154.21185 34.2303,153.30575 35.8358,153.30575 C36.84655,153.30575 37.94635,153.647 38.8089,154.22745 L37.94635,155.7881 C37.15855,155.32725 36.37075,155.0445 35.79095,155.0445 C35.24105,155.0445 34.95895,155.2824 34.95895,155.5944 L34.95895,155.6243 C34.95895,156.0702 35.71685,156.2782 36.57875,156.5759 C37.69415,156.94705 38.987,157.482 38.987,158.9393 L38.987,158.9692 C38.987,160.73785 37.66425,161.5406 35.9398,161.5406 C34.82505,161.5406 33.5764,161.1688 32.5208,160.33615" id="Fill-16" fill="#3E4041"></path>
                    <path d="M40.9929,155.3565 L40.05625,155.3565 L40.05625,153.4988 L40.9929,153.4988 L40.9929,152.9931 C40.9929,152.11625 41.21585,151.47665 41.63185,151.0613 C42.04785,150.64465 42.65755,150.43665 43.4603,150.43665 C44.174,150.43665 44.64915,150.5257 45.0658,150.65895 L45.0658,152.53225 C44.7382,152.41395 44.42685,152.3392 44.0401,152.3392 C43.51945,152.3392 43.2224,152.60635 43.2224,153.20175 L43.2224,153.51375 L45.05085,153.51375 L45.05085,155.3565 L43.2523,155.3565 L43.2523,161.39175 L40.9929,161.39175 L40.9929,155.3565" id="Fill-17" fill="#3E4041"></path>
                    <path d="M52.1404,157.45275 L52.1404,157.42285 C52.1404,156.2483 51.2928,155.22325 50.0448,155.22325 C48.7513,155.22325 47.97845,156.21905 47.97845,157.3936 L47.97845,157.42285 C47.97845,158.59675 48.8254,159.62245 50.07405,159.62245 C51.36755,159.62245 52.1404,158.62665 52.1404,157.45275 Z M45.7483,157.45275 L45.7483,157.42285 C45.7483,155.13355 47.5917,153.27585 50.07405,153.27585 C52.54145,153.27585 54.3699,155.10365 54.3699,157.3936 L54.3699,157.42285 C54.3699,159.71215 52.5265,161.5705 50.0448,161.5705 C47.57675,161.5705 45.7483,159.74205 45.7483,157.45275 L45.7483,157.45275 Z" id="Fill-18" fill="#3E4041"></path>
                    <path d="M56.00335,153.42405 L58.26275,153.42405 L58.26275,155.02955 C58.7236,153.92975 59.46655,153.21605 60.8049,153.27585 L60.8049,155.63925 L60.68595,155.63925 C59.18445,155.63925 58.26275,156.546 58.26275,158.44855 L58.26275,161.39175 L56.00335,161.39175 L56.00335,153.42405" id="Fill-19" fill="#3E4041"></path>
                    <path d="M62.21605,153.42405 L64.47545,153.42405 L64.47545,154.5544 C64.99545,153.8849 65.67925,153.27585 66.8239,153.27585 C67.86455,153.27585 68.65235,153.7367 69.06835,154.5388 C69.7671,153.72175 70.59975,153.27585 71.68525,153.27585 C73.36485,153.27585 74.3756,154.28595 74.3756,156.2041 L74.3756,161.39175 L72.1162,161.39175 L72.1162,156.94705 C72.1162,155.87715 71.63975,155.32725 70.7928,155.32725 C69.9452,155.32725 69.4252,155.87715 69.4252,156.94705 L69.4252,161.39175 L67.1658,161.39175 L67.1658,156.94705 C67.1658,155.87715 66.69,155.32725 65.84305,155.32725 C64.99545,155.32725 64.47545,155.87715 64.47545,156.94705 L64.47545,161.39175 L62.21605,161.39175 L62.21605,153.42405" id="Fill-20" fill="#3E4041"></path>
                    <path d="M76.4387,161.39175 L78.69875,161.39175 L78.69875,153.42405 L76.4387,153.42405 L76.4387,161.39175 Z M76.3789,152.54785 L78.75725,152.54785 L78.75725,150.54065 L76.3789,150.54065 L76.3789,152.54785 Z" id="Fill-21" fill="#3E4041"></path>
                    <g id="Group-25" transform="translate(80.600000, 152.750000)">
                        <mask id="mask-6" fill="white">
                            <use xlink:href="#path-5"></use>
                        </mask>
                        <g id="Clip-23"></g>
                        <path d="M0.22295,0.67405 L2.48235,0.67405 L2.48235,1.8044 C3.00235,1.1349 3.67185,0.52585 4.8165,0.52585 C6.52535,0.52585 7.5218,1.65555 7.5218,3.484 L7.5218,8.64175 L5.2624,8.64175 L5.2624,4.19705 C5.2624,3.12715 4.7567,2.57725 3.8948,2.57725 C3.03225,2.57725 2.48235,3.12715 2.48235,4.19705 L2.48235,8.64175 L0.22295,8.64175 L0.22295,0.67405" id="Fill-22" fill="#3E4041" mask="url(#mask-6)"></path>
                        <path d="M15.2646,4.27115 L15.2646,4.2419 C15.2646,3.15705 14.41765,2.39915 13.31785,2.39915 C12.2174,2.39915 11.38475,3.15705 11.38475,4.2419 L11.38475,4.27115 C11.38475,5.3716 12.2174,6.11455 13.31785,6.11455 C14.41765,6.11455 15.2646,5.35665 15.2646,4.27115 Z M9.52705,10.21735 L10.2999,8.5228 C11.1176,8.98365 11.9353,9.25145 12.9909,9.25145 C14.5366,9.25145 15.2646,8.50785 15.2646,7.0811 L15.2646,6.69435 C14.59575,7.4971 13.8671,7.98785 12.6633,7.98785 C10.80495,7.98785 9.12535,6.6352 9.12535,4.27115 L9.12535,4.2419 C9.12535,1.86355 10.83485,0.52585 12.6633,0.52585 C13.897,0.52585 14.625,1.0465 15.23535,1.7147 L15.23535,0.67405 L17.4941,0.67405 L17.4941,6.84385 C17.4941,8.2706 17.15285,9.3106 16.484,9.9801 C15.7404,10.72305 14.59575,11.05 13.05005,11.05 C11.75655,11.05 10.5378,10.7523 9.52705,10.21735 L9.52705,10.21735 Z" id="Fill-24" fill="#3E4041" mask="url(#mask-6)"></path>
                    </g>
                    <polyline id="Fill-26" fill="#3E4041" points="104.8099 150.98655 107.09985 150.98655 107.09985 159.3111 112.2875 159.3111 112.2875 161.39175 104.8099 161.39175 104.8099 150.98655"></polyline>
                    <path d="M113.8761,161.39175 L116.1355,161.39175 L116.1355,153.42405 L113.8761,153.42405 L113.8761,161.39175 Z M113.81695,152.54785 L116.19465,152.54785 L116.19465,150.54065 L113.81695,150.54065 L113.81695,152.54785 Z" id="Fill-27" fill="#3E4041"></path>
                    <polyline id="Fill-28" fill="#3E4041" points="117.54665 153.42405 119.93995 153.42405 121.72355 158.76055 123.52275 153.42405 125.8712 153.42405 122.73495 161.45155 120.6829 161.45155 117.54665 153.42405"></polyline>
                    <path d="M131.9643,156.7839 C131.8304,155.77315 131.23565,155.08935 130.2847,155.08935 C129.3474,155.08935 128.73835,155.7582 128.56025,156.7839 L131.9643,156.7839 Z M126.34505,157.45275 L126.34505,157.42285 C126.34505,155.14915 127.9655,153.27585 130.2847,153.27585 C132.9458,153.27585 134.16455,155.34155 134.16455,157.60095 C134.16455,157.7797 134.14895,157.9877 134.13465,158.1957 L128.5895,158.1957 C128.81245,159.2214 129.52615,159.75635 130.53755,159.75635 C131.29545,159.75635 131.84535,159.51845 132.46935,158.9393 L133.7622,160.0833 C133.0199,161.005 131.9487,161.5705 130.50765,161.5705 C128.11435,161.5705 126.34505,159.8909 126.34505,157.45275 L126.34505,157.45275 Z" id="Fill-29" fill="#3E4041"></path>
                    <path d="M135.2182,160.33615 L136.1841,158.85025 C137.046,159.47425 137.9534,159.8012 138.69635,159.8012 C139.35025,159.8012 139.64795,159.56395 139.64795,159.2071 L139.64795,159.1772 C139.64795,158.68645 138.8751,158.52265 137.9976,158.2555 C136.88285,157.92855 135.61925,157.4079 135.61925,155.8622 L135.61925,155.8323 C135.61925,154.21185 136.9277,153.30575 138.53255,153.30575 C139.54395,153.30575 140.64375,153.647 141.5063,154.22745 L140.64375,155.7881 C139.8553,155.32725 139.06815,155.0445 138.48835,155.0445 C137.93845,155.0445 137.65635,155.2824 137.65635,155.5944 L137.65635,155.6243 C137.65635,156.0702 138.41425,156.2782 139.27615,156.5759 C140.39155,156.94705 141.6844,157.482 141.6844,158.9393 L141.6844,158.9692 C141.6844,160.73785 140.36165,161.5406 138.63655,161.5406 C137.52245,161.5406 136.2738,161.1688 135.2182,160.33615" id="Fill-30" fill="#3E4041"></path>
                </g>
            </g>
        </g>
    </g>
</svg>